# xmcd
#
# Track frame offsets:
#	150
#	20711
#	37031
#	86167
#	105257
#	133988
#
# Disc length: 2234 seconds
#
# Revision: 1
# Processed by: cddbd v1.5.2PL0 Copyright (c) Steve Scherf et al.
# Submitted via: audiograbber 1.83.01
#
DISCID=4d08b806
DTITLE=Grateful Dead - 70-03-24 Pirate's World, Dania FL
DYEAR=1900
DGENRE=
TTITLE0=Morning Dew
TTITLE1=High Time
TTITLE2=Drums > Good Lovin'
TTITLE3=Don't Ease Me In
TTITLE4=Cold Rain and Snow
TTITLE5=High Time
EXTD=
EXTT0=
EXTT1=
EXTT2=
EXTT3=
EXTT4=
EXTT5=
PLAYORDER=
